<mxfile host="app.diagrams.net" modified="2021-05-06T16:31:58.804Z" agent="5.0 (Windows)" etag="h2rdOdfQyRqc-Cv-lS6I" version="14.6.9" type="github" pages="2">
  <diagram id="O6vMDhjwUfEgqYU45r9u" name="Page-1">
    <mxGraphModel dx="2218" dy="2031" grid="1" gridSize="10" guides="1" tooltips="1" connect="1" arrows="1" fold="1" page="1" pageScale="1" pageWidth="827" pageHeight="1169" math="0" shadow="0">
      <root>
        <mxCell id="0" />
        <mxCell id="1" parent="0" />
        <mxCell id="VTwx-t2vPlXbv8BFAl15-5" value="" style="rounded=1;whiteSpace=wrap;html=1;fillColor=#76608a;strokeColor=#432D57;fontColor=#ffffff;" vertex="1" parent="1">
          <mxGeometry x="420" y="740" width="300" height="310" as="geometry" />
        </mxCell>
        <mxCell id="0gZr8LwHz6kF_PgUSsYP-43" value="" style="rounded=1;whiteSpace=wrap;html=1;fillColor=#fff2cc;strokeColor=#d6b656;" parent="1" vertex="1">
          <mxGeometry x="-630" y="715" width="990" height="460" as="geometry" />
        </mxCell>
        <mxCell id="0gZr8LwHz6kF_PgUSsYP-20" value="" style="rounded=1;whiteSpace=wrap;html=1;" parent="1" vertex="1">
          <mxGeometry x="110" y="10" width="690" height="275" as="geometry" />
        </mxCell>
        <mxCell id="0gZr8LwHz6kF_PgUSsYP-4" value="" style="rounded=1;whiteSpace=wrap;html=1;fillColor=#B9AFA5;" parent="1" vertex="1">
          <mxGeometry x="780" y="740" width="180" height="310" as="geometry" />
        </mxCell>
        <mxCell id="oYeyKkTTprPO0pwxHMos-5" value="" style="rounded=1;whiteSpace=wrap;html=1;fillColor=#FF99CC;" parent="1" vertex="1">
          <mxGeometry x="-414" y="50" width="490" height="310" as="geometry" />
        </mxCell>
        <mxCell id="oYeyKkTTprPO0pwxHMos-4" value="" style="rounded=1;whiteSpace=wrap;html=1;fillColor=#66B2FF;" parent="1" vertex="1">
          <mxGeometry x="-450" y="380" width="740" height="310" as="geometry" />
        </mxCell>
        <mxCell id="oYeyKkTTprPO0pwxHMos-3" value="" style="rounded=1;whiteSpace=wrap;html=1;fillColor=#B9E0A5;" parent="1" vertex="1">
          <mxGeometry x="770" y="300" width="720" height="380" as="geometry" />
        </mxCell>
        <mxCell id="oYeyKkTTprPO0pwxHMos-2" value="" style="rounded=1;whiteSpace=wrap;html=1;fillColor=#FFB366;" parent="1" vertex="1">
          <mxGeometry x="823" y="-350" width="607" height="550" as="geometry" />
        </mxCell>
        <mxCell id="oYeyKkTTprPO0pwxHMos-1" value="" style="rounded=1;whiteSpace=wrap;html=1;fillColor=#FFFF99;" parent="1" vertex="1">
          <mxGeometry x="310" y="-540" width="460" height="430" as="geometry" />
        </mxCell>
        <mxCell id="li9ldGSQjym8fthIgQEz-92" value="" style="ellipse;shape=cloud;whiteSpace=wrap;html=1;" parent="1" vertex="1">
          <mxGeometry x="220" y="-660" width="160" height="90" as="geometry" />
        </mxCell>
        <mxCell id="li9ldGSQjym8fthIgQEz-2" value="" style="edgeStyle=orthogonalEdgeStyle;rounded=0;orthogonalLoop=1;jettySize=auto;html=1;" parent="1" source="lZQFlN8KfpUWZrCgefKN-1" target="li9ldGSQjym8fthIgQEz-1" edge="1">
          <mxGeometry relative="1" as="geometry" />
        </mxCell>
        <mxCell id="li9ldGSQjym8fthIgQEz-4" value="" style="edgeStyle=orthogonalEdgeStyle;rounded=0;orthogonalLoop=1;jettySize=auto;html=1;" parent="1" source="lZQFlN8KfpUWZrCgefKN-1" target="li9ldGSQjym8fthIgQEz-3" edge="1">
          <mxGeometry relative="1" as="geometry" />
        </mxCell>
        <mxCell id="li9ldGSQjym8fthIgQEz-6" value="" style="edgeStyle=orthogonalEdgeStyle;rounded=0;orthogonalLoop=1;jettySize=auto;html=1;" parent="1" source="lZQFlN8KfpUWZrCgefKN-1" target="li9ldGSQjym8fthIgQEz-5" edge="1">
          <mxGeometry relative="1" as="geometry" />
        </mxCell>
        <mxCell id="lZQFlN8KfpUWZrCgefKN-1" value="&lt;div&gt;Calcul des besoins&lt;/div&gt;" style="shape=process;whiteSpace=wrap;html=1;backgroundOutline=1;" parent="1" vertex="1">
          <mxGeometry x="1110" y="-84" width="120" height="60" as="geometry" />
        </mxCell>
        <mxCell id="li9ldGSQjym8fthIgQEz-42" style="edgeStyle=orthogonalEdgeStyle;rounded=0;orthogonalLoop=1;jettySize=auto;html=1;entryX=0.5;entryY=0;entryDx=0;entryDy=0;" parent="1" source="li9ldGSQjym8fthIgQEz-1" edge="1" target="li9ldGSQjym8fthIgQEz-37">
          <mxGeometry relative="1" as="geometry">
            <mxPoint x="860" y="310" as="targetPoint" />
            <Array as="points">
              <mxPoint x="1000" y="170" />
              <mxPoint x="1170" y="170" />
            </Array>
          </mxGeometry>
        </mxCell>
        <mxCell id="li9ldGSQjym8fthIgQEz-1" value="Nouvelle commande" style="shape=process;whiteSpace=wrap;html=1;backgroundOutline=1;" parent="1" vertex="1">
          <mxGeometry x="940" y="35" width="120" height="60" as="geometry" />
        </mxCell>
        <mxCell id="li9ldGSQjym8fthIgQEz-43" style="edgeStyle=orthogonalEdgeStyle;rounded=0;orthogonalLoop=1;jettySize=auto;html=1;exitX=0.5;exitY=1;exitDx=0;exitDy=0;entryX=0.5;entryY=0;entryDx=0;entryDy=0;" parent="1" source="li9ldGSQjym8fthIgQEz-3" edge="1" target="li9ldGSQjym8fthIgQEz-37">
          <mxGeometry relative="1" as="geometry">
            <mxPoint x="860" y="310" as="targetPoint" />
            <Array as="points">
              <mxPoint x="1170" y="130" />
              <mxPoint x="1170" y="130" />
            </Array>
          </mxGeometry>
        </mxCell>
        <mxCell id="li9ldGSQjym8fthIgQEz-3" value="&lt;div&gt;Modification de commande&lt;br&gt;&lt;/div&gt;" style="shape=process;whiteSpace=wrap;html=1;backgroundOutline=1;" parent="1" vertex="1">
          <mxGeometry x="1110" y="35" width="120" height="60" as="geometry" />
        </mxCell>
        <mxCell id="li9ldGSQjym8fthIgQEz-44" style="edgeStyle=orthogonalEdgeStyle;rounded=0;orthogonalLoop=1;jettySize=auto;html=1;entryX=0.5;entryY=0;entryDx=0;entryDy=0;" parent="1" source="li9ldGSQjym8fthIgQEz-5" edge="1" target="li9ldGSQjym8fthIgQEz-37">
          <mxGeometry relative="1" as="geometry">
            <mxPoint x="860" y="310" as="targetPoint" />
            <Array as="points">
              <mxPoint x="1340" y="170" />
              <mxPoint x="1170" y="170" />
            </Array>
          </mxGeometry>
        </mxCell>
        <mxCell id="li9ldGSQjym8fthIgQEz-5" value="&lt;div&gt;Annulation de commande&lt;/div&gt;" style="shape=process;whiteSpace=wrap;html=1;backgroundOutline=1;" parent="1" vertex="1">
          <mxGeometry x="1280" y="35" width="120" height="60" as="geometry" />
        </mxCell>
        <mxCell id="li9ldGSQjym8fthIgQEz-11" value="" style="edgeStyle=orthogonalEdgeStyle;rounded=0;orthogonalLoop=1;jettySize=auto;html=1;" parent="1" source="li9ldGSQjym8fthIgQEz-9" target="li9ldGSQjym8fthIgQEz-10" edge="1">
          <mxGeometry relative="1" as="geometry" />
        </mxCell>
        <mxCell id="li9ldGSQjym8fthIgQEz-9" value="Traduction des prÃ©vision de vente (produits finis)" style="shape=process;whiteSpace=wrap;html=1;backgroundOutline=1;" parent="1" vertex="1">
          <mxGeometry x="445" y="-460" width="120" height="60" as="geometry" />
        </mxCell>
        <mxCell id="li9ldGSQjym8fthIgQEz-18" style="edgeStyle=orthogonalEdgeStyle;rounded=0;orthogonalLoop=1;jettySize=auto;html=1;exitX=1;exitY=0.5;exitDx=0;exitDy=0;entryX=0.5;entryY=0;entryDx=0;entryDy=0;" parent="1" source="li9ldGSQjym8fthIgQEz-10" target="li9ldGSQjym8fthIgQEz-14" edge="1">
          <mxGeometry relative="1" as="geometry" />
        </mxCell>
        <mxCell id="li9ldGSQjym8fthIgQEz-10" value="&lt;div&gt;Suggestions de productions/Fabrication&lt;br&gt;&lt;/div&gt;" style="shape=process;whiteSpace=wrap;html=1;backgroundOutline=1;" parent="1" vertex="1">
          <mxGeometry x="420" y="-340" width="170" height="60" as="geometry" />
        </mxCell>
        <mxCell id="li9ldGSQjym8fthIgQEz-64" style="edgeStyle=orthogonalEdgeStyle;rounded=0;orthogonalLoop=1;jettySize=auto;html=1;entryX=0.5;entryY=0;entryDx=0;entryDy=0;" parent="1" target="li9ldGSQjym8fthIgQEz-76" edge="1">
          <mxGeometry relative="1" as="geometry">
            <mxPoint x="-90" y="490" as="targetPoint" />
            <Array as="points">
              <mxPoint x="350" y="460" />
              <mxPoint x="-110" y="460" />
            </Array>
            <mxPoint x="350" y="286" as="sourcePoint" />
          </mxGeometry>
        </mxCell>
        <mxCell id="li9ldGSQjym8fthIgQEz-21" style="edgeStyle=orthogonalEdgeStyle;rounded=0;orthogonalLoop=1;jettySize=auto;html=1;entryX=0.5;entryY=0;entryDx=0;entryDy=0;" parent="1" source="li9ldGSQjym8fthIgQEz-14" target="li9ldGSQjym8fthIgQEz-20" edge="1">
          <mxGeometry relative="1" as="geometry" />
        </mxCell>
        <mxCell id="li9ldGSQjym8fthIgQEz-14" value="Validation Suggestion OF" style="shape=process;whiteSpace=wrap;html=1;backgroundOutline=1;" parent="1" vertex="1">
          <mxGeometry x="853" y="-270" width="120" height="60" as="geometry" />
        </mxCell>
        <mxCell id="li9ldGSQjym8fthIgQEz-17" value="Analyse de la planif" style="label;whiteSpace=wrap;html=1;align=center;verticalAlign=bottom;spacingLeft=0;spacingBottom=4;imageAlign=center;imageVerticalAlign=top;image=img/clipart/Gear_128x128.png" parent="1" vertex="1">
          <mxGeometry x="620" y="-270" width="120" height="80" as="geometry" />
        </mxCell>
        <mxCell id="li9ldGSQjym8fthIgQEz-24" style="edgeStyle=orthogonalEdgeStyle;rounded=0;orthogonalLoop=1;jettySize=auto;html=1;" parent="1" source="li9ldGSQjym8fthIgQEz-20" edge="1">
          <mxGeometry relative="1" as="geometry">
            <mxPoint x="505" y="-280" as="targetPoint" />
            <Array as="points">
              <mxPoint x="505" y="-130" />
              <mxPoint x="505" y="-280" />
            </Array>
          </mxGeometry>
        </mxCell>
        <mxCell id="li9ldGSQjym8fthIgQEz-29" style="edgeStyle=orthogonalEdgeStyle;rounded=0;orthogonalLoop=1;jettySize=auto;html=1;entryX=0.5;entryY=0;entryDx=0;entryDy=0;" parent="1" source="li9ldGSQjym8fthIgQEz-20" target="lZQFlN8KfpUWZrCgefKN-1" edge="1">
          <mxGeometry relative="1" as="geometry">
            <Array as="points">
              <mxPoint x="1170" y="-130" />
            </Array>
          </mxGeometry>
        </mxCell>
        <mxCell id="VTwx-t2vPlXbv8BFAl15-1" style="edgeStyle=orthogonalEdgeStyle;rounded=0;orthogonalLoop=1;jettySize=auto;html=1;exitX=0.5;exitY=1;exitDx=0;exitDy=0;entryX=0.5;entryY=0;entryDx=0;entryDy=0;" edge="1" parent="1" source="li9ldGSQjym8fthIgQEz-20" target="0gZr8LwHz6kF_PgUSsYP-20">
          <mxGeometry relative="1" as="geometry" />
        </mxCell>
        <mxCell id="li9ldGSQjym8fthIgQEz-20" value="" style="rhombus;whiteSpace=wrap;html=1;" parent="1" vertex="1">
          <mxGeometry x="873" y="-170" width="80" height="80" as="geometry" />
        </mxCell>
        <mxCell id="li9ldGSQjym8fthIgQEz-23" value="OK" style="text;html=1;align=center;verticalAlign=middle;resizable=0;points=[];autosize=1;" parent="1" vertex="1">
          <mxGeometry x="915" y="-80" width="30" height="20" as="geometry" />
        </mxCell>
        <mxCell id="li9ldGSQjym8fthIgQEz-25" value="KO" style="text;html=1;align=center;verticalAlign=middle;resizable=0;points=[];autosize=1;" parent="1" vertex="1">
          <mxGeometry x="700" y="-150" width="30" height="20" as="geometry" />
        </mxCell>
        <mxCell id="li9ldGSQjym8fthIgQEz-26" value="&lt;div&gt;OF associÃ©s aux lignes de fab&lt;/div&gt;&lt;div&gt;&lt;br&gt;&lt;/div&gt;" style="text;html=1;strokeColor=none;fillColor=none;align=center;verticalAlign=middle;whiteSpace=wrap;rounded=0;" parent="1" vertex="1">
          <mxGeometry x="590" y="-350" width="190" height="70" as="geometry" />
        </mxCell>
        <mxCell id="li9ldGSQjym8fthIgQEz-74" style="edgeStyle=orthogonalEdgeStyle;rounded=0;orthogonalLoop=1;jettySize=auto;html=1;entryX=0.5;entryY=0;entryDx=0;entryDy=0;" parent="1" source="li9ldGSQjym8fthIgQEz-31" target="li9ldGSQjym8fthIgQEz-71" edge="1">
          <mxGeometry relative="1" as="geometry" />
        </mxCell>
        <mxCell id="li9ldGSQjym8fthIgQEz-31" value="&lt;div&gt;&lt;b&gt;PASTO&lt;/b&gt;&lt;/div&gt;&lt;div&gt;(CrÃ©ation des Mix)&lt;br&gt;&lt;/div&gt;" style="shape=process;whiteSpace=wrap;html=1;backgroundOutline=1;" parent="1" vertex="1">
          <mxGeometry x="-164" y="190" width="134" height="60" as="geometry" />
        </mxCell>
        <mxCell id="li9ldGSQjym8fthIgQEz-33" value="PROD" style="shape=process;whiteSpace=wrap;html=1;backgroundOutline=1;fontStyle=1" parent="1" vertex="1">
          <mxGeometry x="-423" y="410" width="120" height="60" as="geometry" />
        </mxCell>
        <mxCell id="li9ldGSQjym8fthIgQEz-35" value="RECEPTION" style="shape=process;whiteSpace=wrap;html=1;backgroundOutline=1;fontStyle=1" parent="1" vertex="1">
          <mxGeometry x="1300" y="588" width="120" height="60" as="geometry" />
        </mxCell>
        <mxCell id="li9ldGSQjym8fthIgQEz-47" style="edgeStyle=orthogonalEdgeStyle;rounded=0;orthogonalLoop=1;jettySize=auto;html=1;entryX=0.5;entryY=0;entryDx=0;entryDy=0;" parent="1" source="li9ldGSQjym8fthIgQEz-37" edge="1" target="li9ldGSQjym8fthIgQEz-48">
          <mxGeometry relative="1" as="geometry">
            <mxPoint x="1020" y="470" as="targetPoint" />
            <Array as="points">
              <mxPoint x="1055" y="350" />
            </Array>
          </mxGeometry>
        </mxCell>
        <mxCell id="li9ldGSQjym8fthIgQEz-54" style="edgeStyle=orthogonalEdgeStyle;rounded=0;orthogonalLoop=1;jettySize=auto;html=1;" parent="1" source="li9ldGSQjym8fthIgQEz-37" target="li9ldGSQjym8fthIgQEz-53" edge="1">
          <mxGeometry relative="1" as="geometry" />
        </mxCell>
        <mxCell id="li9ldGSQjym8fthIgQEz-37" value="Commande d&#39;achat" style="whiteSpace=wrap;html=1;" parent="1" vertex="1">
          <mxGeometry x="1110" y="320" width="120" height="60" as="geometry" />
        </mxCell>
        <mxCell id="li9ldGSQjym8fthIgQEz-45" value="APPRO" style="shape=process;whiteSpace=wrap;html=1;backgroundOutline=1;fontStyle=1" parent="1" vertex="1">
          <mxGeometry x="1220" y="-280" width="120" height="60" as="geometry" />
        </mxCell>
        <mxCell id="li9ldGSQjym8fthIgQEz-50" style="edgeStyle=orthogonalEdgeStyle;rounded=0;orthogonalLoop=1;jettySize=auto;html=1;entryX=0.5;entryY=0;entryDx=0;entryDy=0;" parent="1" source="li9ldGSQjym8fthIgQEz-48" target="li9ldGSQjym8fthIgQEz-49" edge="1">
          <mxGeometry relative="1" as="geometry" />
        </mxCell>
        <mxCell id="li9ldGSQjym8fthIgQEz-48" value="RÃ©ception physique/informatique (DVP)" style="shape=process;whiteSpace=wrap;html=1;backgroundOutline=1;" parent="1" vertex="1">
          <mxGeometry x="970" y="470" width="170" height="60" as="geometry" />
        </mxCell>
        <mxCell id="li9ldGSQjym8fthIgQEz-60" style="edgeStyle=orthogonalEdgeStyle;rounded=0;orthogonalLoop=1;jettySize=auto;html=1;exitX=0;exitY=0.25;exitDx=0;exitDy=0;" parent="1" source="li9ldGSQjym8fthIgQEz-78" edge="1">
          <mxGeometry relative="1" as="geometry">
            <Array as="points">
              <mxPoint x="786" y="560" />
              <mxPoint x="413" y="560" />
              <mxPoint x="413" y="350" />
              <mxPoint x="-104" y="350" />
            </Array>
            <mxPoint x="-104" y="250" as="targetPoint" />
          </mxGeometry>
        </mxCell>
        <mxCell id="li9ldGSQjym8fthIgQEz-73" style="edgeStyle=orthogonalEdgeStyle;rounded=0;orthogonalLoop=1;jettySize=auto;html=1;exitX=0;exitY=0;exitDx=0;exitDy=0;entryX=1;entryY=0.5;entryDx=0;entryDy=0;" parent="1" source="li9ldGSQjym8fthIgQEz-49" target="li9ldGSQjym8fthIgQEz-71" edge="1">
          <mxGeometry relative="1" as="geometry">
            <Array as="points">
              <mxPoint x="995" y="600" />
              <mxPoint x="940" y="600" />
              <mxPoint x="940" y="500" />
              <mxPoint x="500" y="500" />
              <mxPoint x="500" y="320" />
            </Array>
          </mxGeometry>
        </mxCell>
        <mxCell id="li9ldGSQjym8fthIgQEz-79" style="edgeStyle=orthogonalEdgeStyle;rounded=0;orthogonalLoop=1;jettySize=auto;html=1;exitX=0;exitY=0.75;exitDx=0;exitDy=0;entryX=0.997;entryY=0.885;entryDx=0;entryDy=0;entryPerimeter=0;" parent="1" source="li9ldGSQjym8fthIgQEz-49" target="li9ldGSQjym8fthIgQEz-78" edge="1">
          <mxGeometry relative="1" as="geometry">
            <Array as="points">
              <mxPoint x="995" y="627" />
            </Array>
          </mxGeometry>
        </mxCell>
        <mxCell id="li9ldGSQjym8fthIgQEz-49" value="Rangement" style="shape=process;whiteSpace=wrap;html=1;backgroundOutline=1;" parent="1" vertex="1">
          <mxGeometry x="995" y="580" width="120" height="60" as="geometry" />
        </mxCell>
        <mxCell id="li9ldGSQjym8fthIgQEz-51" value="Planning des rÃ©ceptions" style="text;html=1;align=center;verticalAlign=middle;resizable=0;points=[];autosize=1;" parent="1" vertex="1">
          <mxGeometry x="940" y="320" width="150" height="20" as="geometry" />
        </mxCell>
        <mxCell id="li9ldGSQjym8fthIgQEz-52" value="&lt;div&gt;MAGELLAN&lt;/div&gt;" style="ellipse;whiteSpace=wrap;html=1;" parent="1" vertex="1">
          <mxGeometry x="875" y="410" width="120" height="80" as="geometry" />
        </mxCell>
        <mxCell id="li9ldGSQjym8fthIgQEz-53" value="Sites extÃ©rieurs" style="shape=process;whiteSpace=wrap;html=1;backgroundOutline=1;" parent="1" vertex="1">
          <mxGeometry x="1260" y="470" width="120" height="60" as="geometry" />
        </mxCell>
        <mxCell id="li9ldGSQjym8fthIgQEz-57" value="" style="endArrow=classic;startArrow=classic;html=1;entryX=0;entryY=0.5;entryDx=0;entryDy=0;exitX=1;exitY=0.5;exitDx=0;exitDy=0;" parent="1" source="li9ldGSQjym8fthIgQEz-48" target="li9ldGSQjym8fthIgQEz-53" edge="1">
          <mxGeometry width="50" height="50" relative="1" as="geometry">
            <mxPoint x="930" y="420" as="sourcePoint" />
            <mxPoint x="980" y="370" as="targetPoint" />
          </mxGeometry>
        </mxCell>
        <mxCell id="li9ldGSQjym8fthIgQEz-58" value="Navettes" style="text;html=1;align=center;verticalAlign=middle;resizable=0;points=[];autosize=1;" parent="1" vertex="1">
          <mxGeometry x="1170" y="470" width="60" height="20" as="geometry" />
        </mxCell>
        <mxCell id="li9ldGSQjym8fthIgQEz-59" value="&lt;div&gt;MAGELLAN&lt;/div&gt;&lt;div&gt;+&lt;/div&gt;&lt;div&gt;SystÃ¨me tiers (T2L)&lt;br&gt;&lt;/div&gt;" style="ellipse;whiteSpace=wrap;html=1;" parent="1" vertex="1">
          <mxGeometry x="1330" y="420" width="140" height="80" as="geometry" />
        </mxCell>
        <mxCell id="li9ldGSQjym8fthIgQEz-63" value="&lt;div&gt;Ordonnancement des OF&lt;/div&gt;&lt;div&gt; vers la PASTO&lt;/div&gt;" style="text;html=1;align=center;verticalAlign=middle;resizable=0;points=[];autosize=1;" parent="1" vertex="1">
          <mxGeometry x="-74" y="115" width="150" height="30" as="geometry" />
        </mxCell>
        <mxCell id="li9ldGSQjym8fthIgQEz-65" value="Ordonnancement des OF vers la PROD" style="text;html=1;align=center;verticalAlign=middle;resizable=0;points=[];autosize=1;" parent="1" vertex="1">
          <mxGeometry x="40" y="440" width="230" height="20" as="geometry" />
        </mxCell>
        <mxCell id="li9ldGSQjym8fthIgQEz-67" value="MP ex: Cones, CacahuÃ¨tes" style="text;html=1;align=center;verticalAlign=middle;resizable=0;points=[];autosize=1;" parent="1" vertex="1">
          <mxGeometry x="20" y="648" width="160" height="20" as="geometry" />
        </mxCell>
        <mxCell id="li9ldGSQjym8fthIgQEz-69" value="Mix (CrÃ¨me glacÃ©e chocolat)" style="text;html=1;align=center;verticalAlign=middle;resizable=0;points=[];autosize=1;" parent="1" vertex="1">
          <mxGeometry x="-195" y="410" width="170" height="20" as="geometry" />
        </mxCell>
        <mxCell id="li9ldGSQjym8fthIgQEz-70" value="MP pour crÃ©ation des crÃ¨mes glacÃ©es" style="text;html=1;align=center;verticalAlign=middle;resizable=0;points=[];autosize=1;" parent="1" vertex="1">
          <mxGeometry x="70" y="330" width="220" height="20" as="geometry" />
        </mxCell>
        <mxCell id="li9ldGSQjym8fthIgQEz-75" style="edgeStyle=orthogonalEdgeStyle;rounded=0;orthogonalLoop=1;jettySize=auto;html=1;entryX=0.75;entryY=0;entryDx=0;entryDy=0;" parent="1" source="li9ldGSQjym8fthIgQEz-71" target="li9ldGSQjym8fthIgQEz-77" edge="1">
          <mxGeometry relative="1" as="geometry">
            <mxPoint x="-152" y="480" as="targetPoint" />
            <Array as="points">
              <mxPoint x="-200" y="340" />
            </Array>
          </mxGeometry>
        </mxCell>
        <mxCell id="li9ldGSQjym8fthIgQEz-71" value="Tank maturation" style="rounded=0;whiteSpace=wrap;html=1;" parent="1" vertex="1">
          <mxGeometry x="-383" y="290" width="120" height="60" as="geometry" />
        </mxCell>
        <mxCell id="li9ldGSQjym8fthIgQEz-76" value="ArriÃ¨re de ligne" style="shape=process;whiteSpace=wrap;html=1;backgroundOutline=1;" parent="1" vertex="1">
          <mxGeometry x="-170" y="510" width="120" height="60" as="geometry" />
        </mxCell>
        <mxCell id="li9ldGSQjym8fthIgQEz-83" style="edgeStyle=orthogonalEdgeStyle;rounded=0;orthogonalLoop=1;jettySize=auto;html=1;exitX=0;exitY=0.5;exitDx=0;exitDy=0;" parent="1" source="li9ldGSQjym8fthIgQEz-77" edge="1">
          <mxGeometry relative="1" as="geometry">
            <mxPoint x="-470" y="540" as="targetPoint" />
          </mxGeometry>
        </mxCell>
        <mxCell id="0gZr8LwHz6kF_PgUSsYP-39" style="edgeStyle=orthogonalEdgeStyle;rounded=0;orthogonalLoop=1;jettySize=auto;html=1;exitX=0.25;exitY=0;exitDx=0;exitDy=0;entryX=0.25;entryY=1;entryDx=0;entryDy=0;" parent="1" source="li9ldGSQjym8fthIgQEz-77" edge="1" target="0gZr8LwHz6kF_PgUSsYP-40">
          <mxGeometry relative="1" as="geometry">
            <mxPoint x="-260" y="120" as="targetPoint" />
            <Array as="points">
              <mxPoint x="-260" y="370" />
              <mxPoint x="-464" y="370" />
            </Array>
          </mxGeometry>
        </mxCell>
        <mxCell id="li9ldGSQjym8fthIgQEz-77" value="Avant de ligne" style="shape=process;whiteSpace=wrap;html=1;backgroundOutline=1;" parent="1" vertex="1">
          <mxGeometry x="-290" y="510" width="120" height="60" as="geometry" />
        </mxCell>
        <mxCell id="li9ldGSQjym8fthIgQEz-80" style="edgeStyle=orthogonalEdgeStyle;rounded=0;orthogonalLoop=1;jettySize=auto;html=1;exitX=-0.017;exitY=0.915;exitDx=0;exitDy=0;entryX=0.75;entryY=1;entryDx=0;entryDy=0;exitPerimeter=0;" parent="1" source="li9ldGSQjym8fthIgQEz-78" target="li9ldGSQjym8fthIgQEz-76" edge="1">
          <mxGeometry relative="1" as="geometry">
            <Array as="points">
              <mxPoint x="-80" y="630" />
            </Array>
          </mxGeometry>
        </mxCell>
        <mxCell id="li9ldGSQjym8fthIgQEz-81" style="edgeStyle=orthogonalEdgeStyle;rounded=0;orthogonalLoop=1;jettySize=auto;html=1;exitX=0.5;exitY=1;exitDx=0;exitDy=0;entryX=0.675;entryY=1.017;entryDx=0;entryDy=0;entryPerimeter=0;" parent="1" source="li9ldGSQjym8fthIgQEz-78" target="li9ldGSQjym8fthIgQEz-77" edge="1">
          <mxGeometry relative="1" as="geometry">
            <Array as="points">
              <mxPoint x="845" y="670" />
              <mxPoint x="-209" y="670" />
            </Array>
          </mxGeometry>
        </mxCell>
        <mxCell id="li9ldGSQjym8fthIgQEz-78" value="&lt;div&gt;PrÃ©paration&lt;/div&gt;&lt;div&gt;(Zone d&#39;attente)&lt;br&gt;&lt;/div&gt;" style="shape=process;whiteSpace=wrap;html=1;backgroundOutline=1;" parent="1" vertex="1">
          <mxGeometry x="785" y="530" width="120" height="110" as="geometry" />
        </mxCell>
        <mxCell id="li9ldGSQjym8fthIgQEz-82" value="Emballages" style="text;html=1;align=center;verticalAlign=middle;resizable=0;points=[];autosize=1;" parent="1" vertex="1">
          <mxGeometry x="65" y="608" width="80" height="20" as="geometry" />
        </mxCell>
        <mxCell id="li9ldGSQjym8fthIgQEz-85" value="Palette (produits finis)" style="text;html=1;align=center;verticalAlign=middle;resizable=0;points=[];autosize=1;" parent="1" vertex="1">
          <mxGeometry x="-450" y="540" width="140" height="20" as="geometry" />
        </mxCell>
        <mxCell id="li9ldGSQjym8fthIgQEz-87" style="edgeStyle=orthogonalEdgeStyle;rounded=0;orthogonalLoop=1;jettySize=auto;html=1;" parent="1" source="li9ldGSQjym8fthIgQEz-86" target="li9ldGSQjym8fthIgQEz-76" edge="1">
          <mxGeometry relative="1" as="geometry" />
        </mxCell>
        <mxCell id="li9ldGSQjym8fthIgQEz-86" value="&lt;div&gt;Transit&lt;/div&gt;" style="ellipse;whiteSpace=wrap;html=1;aspect=fixed;" parent="1" vertex="1">
          <mxGeometry x="20" y="500" width="80" height="80" as="geometry" />
        </mxCell>
        <mxCell id="li9ldGSQjym8fthIgQEz-88" value="EXPEDITION" style="shape=process;whiteSpace=wrap;html=1;backgroundOutline=1;" parent="1" vertex="1">
          <mxGeometry x="-590" y="510" width="120" height="60" as="geometry" />
        </mxCell>
        <mxCell id="li9ldGSQjym8fthIgQEz-89" value="PLANIF" style="shape=process;whiteSpace=wrap;html=1;backgroundOutline=1;fontStyle=1" parent="1" vertex="1">
          <mxGeometry x="615" y="-520" width="120" height="60" as="geometry" />
        </mxCell>
        <mxCell id="li9ldGSQjym8fthIgQEz-90" value="" style="endArrow=classic;html=1;entryX=0.25;entryY=0;entryDx=0;entryDy=0;" parent="1" target="li9ldGSQjym8fthIgQEz-9" edge="1">
          <mxGeometry width="50" height="50" relative="1" as="geometry">
            <mxPoint x="350" y="-590" as="sourcePoint" />
            <mxPoint x="610" y="-160" as="targetPoint" />
          </mxGeometry>
        </mxCell>
        <mxCell id="li9ldGSQjym8fthIgQEz-91" value="PrÃ©vision des ventes" style="text;html=1;align=center;verticalAlign=middle;resizable=0;points=[];autosize=1;" parent="1" vertex="1">
          <mxGeometry x="245" y="-620" width="130" height="20" as="geometry" />
        </mxCell>
        <mxCell id="li9ldGSQjym8fthIgQEz-94" value="CTRL GESTION" style="shape=process;whiteSpace=wrap;html=1;backgroundOutline=1;fontStyle=1" parent="1" vertex="1">
          <mxGeometry x="510" y="760" width="120" height="60" as="geometry" />
        </mxCell>
        <mxCell id="li9ldGSQjym8fthIgQEz-95" value="GESTION PRODUCTION" style="shape=process;whiteSpace=wrap;html=1;backgroundOutline=1;fontStyle=1" parent="1" vertex="1">
          <mxGeometry x="170" y="760" width="120" height="60" as="geometry" />
        </mxCell>
        <mxCell id="oYeyKkTTprPO0pwxHMos-7" style="edgeStyle=orthogonalEdgeStyle;rounded=0;orthogonalLoop=1;jettySize=auto;html=1;exitX=0.5;exitY=1;exitDx=0;exitDy=0;" parent="1" source="li9ldGSQjym8fthIgQEz-96" target="li9ldGSQjym8fthIgQEz-101" edge="1">
          <mxGeometry relative="1" as="geometry" />
        </mxCell>
        <mxCell id="li9ldGSQjym8fthIgQEz-96" value="PROD" style="ellipse;whiteSpace=wrap;html=1;aspect=fixed;" parent="1" vertex="1">
          <mxGeometry x="25" y="770" width="80" height="80" as="geometry" />
        </mxCell>
        <mxCell id="0gZr8LwHz6kF_PgUSsYP-35" style="edgeStyle=orthogonalEdgeStyle;rounded=0;orthogonalLoop=1;jettySize=auto;html=1;exitX=0.5;exitY=0;exitDx=0;exitDy=0;entryX=0.5;entryY=0;entryDx=0;entryDy=0;startArrow=classic;startFill=1;" parent="1" source="li9ldGSQjym8fthIgQEz-99" target="0gZr8LwHz6kF_PgUSsYP-25" edge="1">
          <mxGeometry relative="1" as="geometry">
            <Array as="points">
              <mxPoint x="-480" y="750" />
              <mxPoint x="-260" y="750" />
            </Array>
          </mxGeometry>
        </mxCell>
        <mxCell id="li9ldGSQjym8fthIgQEz-99" value="Feuille de batch" style="shape=process;whiteSpace=wrap;html=1;backgroundOutline=1;" parent="1" vertex="1">
          <mxGeometry x="-540" y="795" width="120" height="60" as="geometry" />
        </mxCell>
        <mxCell id="VTwx-t2vPlXbv8BFAl15-3" style="edgeStyle=orthogonalEdgeStyle;rounded=0;orthogonalLoop=1;jettySize=auto;html=1;exitX=0.5;exitY=1;exitDx=0;exitDy=0;" edge="1" parent="1" source="li9ldGSQjym8fthIgQEz-101" target="li9ldGSQjym8fthIgQEz-106">
          <mxGeometry relative="1" as="geometry" />
        </mxCell>
        <mxCell id="li9ldGSQjym8fthIgQEz-101" value="Autocontrole" style="shape=process;whiteSpace=wrap;html=1;backgroundOutline=1;" parent="1" vertex="1">
          <mxGeometry x="5" y="920" width="120" height="60" as="geometry" />
        </mxCell>
        <mxCell id="li9ldGSQjym8fthIgQEz-102" value="Fichier de dÃ©claration de la production" style="text;html=1;align=center;verticalAlign=middle;resizable=0;points=[];autosize=1;" parent="1" vertex="1">
          <mxGeometry x="90" y="860" width="220" height="20" as="geometry" />
        </mxCell>
        <mxCell id="li9ldGSQjym8fthIgQEz-104" style="edgeStyle=orthogonalEdgeStyle;rounded=0;orthogonalLoop=1;jettySize=auto;html=1;" parent="1" source="li9ldGSQjym8fthIgQEz-103" target="0gZr8LwHz6kF_PgUSsYP-32" edge="1">
          <mxGeometry relative="1" as="geometry">
            <Array as="points">
              <mxPoint x="-430" y="1005" />
            </Array>
          </mxGeometry>
        </mxCell>
        <mxCell id="0gZr8LwHz6kF_PgUSsYP-34" style="edgeStyle=orthogonalEdgeStyle;rounded=0;orthogonalLoop=1;jettySize=auto;html=1;exitX=0.5;exitY=0;exitDx=0;exitDy=0;entryX=0;entryY=0.5;entryDx=0;entryDy=0;" parent="1" source="li9ldGSQjym8fthIgQEz-103" target="li9ldGSQjym8fthIgQEz-99" edge="1">
          <mxGeometry relative="1" as="geometry" />
        </mxCell>
        <mxCell id="li9ldGSQjym8fthIgQEz-103" value="PASTO" style="ellipse;whiteSpace=wrap;html=1;aspect=fixed;" parent="1" vertex="1">
          <mxGeometry x="-610" y="965" width="80" height="80" as="geometry" />
        </mxCell>
        <mxCell id="li9ldGSQjym8fthIgQEz-105" value="DÃ©claration des mix" style="text;html=1;align=center;verticalAlign=middle;resizable=0;points=[];autosize=1;" parent="1" vertex="1">
          <mxGeometry x="-530" y="985" width="120" height="20" as="geometry" />
        </mxCell>
        <mxCell id="li9ldGSQjym8fthIgQEz-106" value="PRODUCTIVITE" style="shape=process;whiteSpace=wrap;html=1;backgroundOutline=1;" parent="1" vertex="1">
          <mxGeometry x="5" y="1020" width="120" height="60" as="geometry" />
        </mxCell>
        <mxCell id="li9ldGSQjym8fthIgQEz-109" value="&lt;div&gt;Analyse du bon fonctionnement de la prod&lt;/div&gt;&lt;div&gt;OF = Palettes produits finis&lt;br&gt;&lt;/div&gt;" style="text;html=1;strokeColor=none;fillColor=none;align=center;verticalAlign=middle;whiteSpace=wrap;rounded=0;" parent="1" vertex="1">
          <mxGeometry x="-20" y="1090" width="200" height="50" as="geometry" />
        </mxCell>
        <mxCell id="li9ldGSQjym8fthIgQEz-111" value="" style="shape=note;whiteSpace=wrap;html=1;backgroundOutline=1;darkOpacity=0.05;size=24;" parent="1" vertex="1">
          <mxGeometry x="270" y="910" width="40" height="60" as="geometry" />
        </mxCell>
        <mxCell id="li9ldGSQjym8fthIgQEz-112" value="" style="shape=note;whiteSpace=wrap;html=1;backgroundOutline=1;darkOpacity=0.05;size=24;" parent="1" vertex="1">
          <mxGeometry x="280" y="920" width="40" height="60" as="geometry" />
        </mxCell>
        <mxCell id="li9ldGSQjym8fthIgQEz-113" value="" style="shape=note;whiteSpace=wrap;html=1;backgroundOutline=1;darkOpacity=0.05;size=24;" parent="1" vertex="1">
          <mxGeometry x="290" y="930" width="40" height="60" as="geometry" />
        </mxCell>
        <mxCell id="li9ldGSQjym8fthIgQEz-114" value="" style="endArrow=classic;html=1;exitX=0;exitY=0.5;exitDx=0;exitDy=0;exitPerimeter=0;entryX=1;entryY=0;entryDx=0;entryDy=0;" parent="1" source="li9ldGSQjym8fthIgQEz-111" target="li9ldGSQjym8fthIgQEz-106" edge="1">
          <mxGeometry width="50" height="50" relative="1" as="geometry">
            <mxPoint x="200" y="900" as="sourcePoint" />
            <mxPoint x="250" y="850" as="targetPoint" />
          </mxGeometry>
        </mxCell>
        <mxCell id="li9ldGSQjym8fthIgQEz-115" value="&lt;div&gt;Calcul des marges et coÃ»ts de revient&lt;/div&gt;&lt;div&gt;Stock initial = Stock final&lt;br&gt;&lt;/div&gt;" style="shape=process;whiteSpace=wrap;html=1;backgroundOutline=1;" parent="1" vertex="1">
          <mxGeometry x="475" y="970" width="200" height="60" as="geometry" />
        </mxCell>
        <mxCell id="0gZr8LwHz6kF_PgUSsYP-1" value="ContrÃ´le QualitÃ©" style="text;html=1;strokeColor=none;fillColor=none;align=center;verticalAlign=middle;whiteSpace=wrap;rounded=0;" parent="1" vertex="1">
          <mxGeometry x="1063" y="545" width="40" height="20" as="geometry" />
        </mxCell>
        <mxCell id="0gZr8LwHz6kF_PgUSsYP-6" value="" style="edgeStyle=orthogonalEdgeStyle;rounded=0;orthogonalLoop=1;jettySize=auto;html=1;" parent="1" source="0gZr8LwHz6kF_PgUSsYP-2" target="0gZr8LwHz6kF_PgUSsYP-5" edge="1">
          <mxGeometry relative="1" as="geometry" />
        </mxCell>
        <mxCell id="0gZr8LwHz6kF_PgUSsYP-2" value="&lt;div&gt;Analyse d&#39;Ã©chantillons&lt;/div&gt;" style="shape=process;whiteSpace=wrap;html=1;backgroundOutline=1;" parent="1" vertex="1">
          <mxGeometry x="810" y="867.5" width="120" height="60" as="geometry" />
        </mxCell>
        <mxCell id="0gZr8LwHz6kF_PgUSsYP-3" value="QUALITE" style="shape=process;whiteSpace=wrap;html=1;backgroundOutline=1;fontStyle=1" parent="1" vertex="1">
          <mxGeometry x="810" y="775" width="120" height="60" as="geometry" />
        </mxCell>
        <mxCell id="0gZr8LwHz6kF_PgUSsYP-5" value="Transaction de dÃ©blocage (41O)" style="shape=process;whiteSpace=wrap;html=1;backgroundOutline=1;" parent="1" vertex="1">
          <mxGeometry x="810" y="972.5" width="120" height="60" as="geometry" />
        </mxCell>
        <mxCell id="0gZr8LwHz6kF_PgUSsYP-7" value="ContrÃ´le QualitÃ©" style="text;html=1;strokeColor=none;fillColor=none;align=center;verticalAlign=middle;whiteSpace=wrap;rounded=0;container=0;fontStyle=3" parent="1" vertex="1" collapsed="1">
          <mxGeometry x="810" y="847.5" width="120" height="20" as="geometry">
            <mxRectangle x="820" y="700" width="220" height="20" as="alternateBounds" />
          </mxGeometry>
        </mxCell>
        <mxCell id="0gZr8LwHz6kF_PgUSsYP-8" value="ContrÃ´le QualitÃ©" style="text;html=1;strokeColor=none;fillColor=none;align=center;verticalAlign=middle;whiteSpace=wrap;rounded=0;" parent="1" vertex="1">
          <mxGeometry x="930" y="635" width="40" height="20" as="geometry" />
        </mxCell>
        <mxCell id="0gZr8LwHz6kF_PgUSsYP-9" value="ContrÃ´le QualitÃ©" style="text;html=1;strokeColor=none;fillColor=none;align=center;verticalAlign=middle;whiteSpace=wrap;rounded=0;" parent="1" vertex="1">
          <mxGeometry x="-400" y="510" width="40" height="20" as="geometry" />
        </mxCell>
        <mxCell id="0gZr8LwHz6kF_PgUSsYP-11" value="ContrÃ´le QualitÃ©" style="text;html=1;strokeColor=none;fillColor=none;align=center;verticalAlign=middle;whiteSpace=wrap;rounded=0;" parent="1" vertex="1">
          <mxGeometry x="-324" y="190" width="40" height="20" as="geometry" />
        </mxCell>
        <mxCell id="0gZr8LwHz6kF_PgUSsYP-18" style="edgeStyle=orthogonalEdgeStyle;rounded=0;orthogonalLoop=1;jettySize=auto;html=1;entryX=0;entryY=0.5;entryDx=0;entryDy=0;" parent="1" source="0gZr8LwHz6kF_PgUSsYP-12" target="0gZr8LwHz6kF_PgUSsYP-17" edge="1">
          <mxGeometry relative="1" as="geometry" />
        </mxCell>
        <mxCell id="0gZr8LwHz6kF_PgUSsYP-12" value="PDP (QuantitÃ© des produits finis)" style="shape=process;whiteSpace=wrap;html=1;backgroundOutline=1;" parent="1" vertex="1">
          <mxGeometry x="160" y="95" width="200" height="60" as="geometry" />
        </mxCell>
        <mxCell id="0gZr8LwHz6kF_PgUSsYP-14" value="QuantitÃ© de MP + EMB" style="shape=process;whiteSpace=wrap;html=1;backgroundOutline=1;" parent="1" vertex="1">
          <mxGeometry x="660" y="185" width="120" height="60" as="geometry" />
        </mxCell>
        <mxCell id="0gZr8LwHz6kF_PgUSsYP-19" style="edgeStyle=orthogonalEdgeStyle;rounded=0;orthogonalLoop=1;jettySize=auto;html=1;" parent="1" source="0gZr8LwHz6kF_PgUSsYP-17" target="0gZr8LwHz6kF_PgUSsYP-14" edge="1">
          <mxGeometry relative="1" as="geometry" />
        </mxCell>
        <mxCell id="0gZr8LwHz6kF_PgUSsYP-17" value="Lecture des nomenclatures" style="shape=process;whiteSpace=wrap;html=1;backgroundOutline=1;" parent="1" vertex="1">
          <mxGeometry x="475" y="95" width="120" height="60" as="geometry" />
        </mxCell>
        <mxCell id="0gZr8LwHz6kF_PgUSsYP-23" value="NÃ©cessite le paramÃ©trage des Nomenclatures" style="text;html=1;strokeColor=none;fillColor=none;align=center;verticalAlign=middle;whiteSpace=wrap;rounded=0;fontStyle=3" parent="1" vertex="1">
          <mxGeometry x="145" y="165" width="230" height="50" as="geometry" />
        </mxCell>
        <mxCell id="0gZr8LwHz6kF_PgUSsYP-24" value="CBN" style="ellipse;whiteSpace=wrap;html=1;" parent="1" vertex="1">
          <mxGeometry x="615" y="70" width="95" height="45" as="geometry" />
        </mxCell>
        <mxCell id="0gZr8LwHz6kF_PgUSsYP-37" style="edgeStyle=orthogonalEdgeStyle;rounded=0;orthogonalLoop=1;jettySize=auto;html=1;exitX=1;exitY=0.5;exitDx=0;exitDy=0;entryX=0;entryY=0.25;entryDx=0;entryDy=0;" parent="1" source="0gZr8LwHz6kF_PgUSsYP-25" target="0gZr8LwHz6kF_PgUSsYP-30" edge="1">
          <mxGeometry relative="1" as="geometry">
            <Array as="points">
              <mxPoint x="-220" y="845" />
            </Array>
          </mxGeometry>
        </mxCell>
        <mxCell id="VTwx-t2vPlXbv8BFAl15-4" style="edgeStyle=orthogonalEdgeStyle;rounded=0;orthogonalLoop=1;jettySize=auto;html=1;exitX=1;exitY=1;exitDx=0;exitDy=0;entryX=0;entryY=0.75;entryDx=0;entryDy=0;" edge="1" parent="1" source="0gZr8LwHz6kF_PgUSsYP-25" target="0gZr8LwHz6kF_PgUSsYP-30">
          <mxGeometry relative="1" as="geometry">
            <Array as="points">
              <mxPoint x="-232" y="875" />
            </Array>
          </mxGeometry>
        </mxCell>
        <mxCell id="0gZr8LwHz6kF_PgUSsYP-25" value="X3" style="ellipse;whiteSpace=wrap;html=1;aspect=fixed;" parent="1" vertex="1">
          <mxGeometry x="-300" y="810" width="80" height="80" as="geometry" />
        </mxCell>
        <mxCell id="0gZr8LwHz6kF_PgUSsYP-38" style="edgeStyle=orthogonalEdgeStyle;rounded=0;orthogonalLoop=1;jettySize=auto;html=1;exitX=0;exitY=0.5;exitDx=0;exitDy=0;" parent="1" source="0gZr8LwHz6kF_PgUSsYP-26" target="0gZr8LwHz6kF_PgUSsYP-32" edge="1">
          <mxGeometry relative="1" as="geometry" />
        </mxCell>
        <mxCell id="0gZr8LwHz6kF_PgUSsYP-26" value="SCAN des matiÃ¨res en prod" style="shape=process;whiteSpace=wrap;html=1;backgroundOutline=1;" parent="1" vertex="1">
          <mxGeometry x="-293" y="1075" width="130" height="60" as="geometry" />
        </mxCell>
        <mxCell id="0gZr8LwHz6kF_PgUSsYP-29" value="Interface STKMVT" style="text;html=1;align=center;verticalAlign=middle;resizable=0;points=[];autosize=1;strokeColor=none;" parent="1" vertex="1">
          <mxGeometry x="-394" y="935" width="110" height="20" as="geometry" />
        </mxCell>
        <mxCell id="0gZr8LwHz6kF_PgUSsYP-30" value="COMPACT" style="shape=process;whiteSpace=wrap;html=1;backgroundOutline=1;" parent="1" vertex="1">
          <mxGeometry x="-163" y="830" width="120" height="60" as="geometry" />
        </mxCell>
        <mxCell id="0gZr8LwHz6kF_PgUSsYP-33" style="edgeStyle=orthogonalEdgeStyle;rounded=0;orthogonalLoop=1;jettySize=auto;html=1;exitX=0.66;exitY=-0.021;exitDx=0;exitDy=0;entryX=0.051;entryY=0.693;entryDx=0;entryDy=0;entryPerimeter=0;exitPerimeter=0;" parent="1" source="0gZr8LwHz6kF_PgUSsYP-32" target="0gZr8LwHz6kF_PgUSsYP-25" edge="1">
          <mxGeometry relative="1" as="geometry">
            <Array as="points">
              <mxPoint x="-391" y="1065" />
              <mxPoint x="-390" y="860" />
            </Array>
          </mxGeometry>
        </mxCell>
        <mxCell id="0gZr8LwHz6kF_PgUSsYP-32" value="MAGELLAN" style="ellipse;whiteSpace=wrap;html=1;" parent="1" vertex="1">
          <mxGeometry x="-470" y="1065" width="120" height="80" as="geometry" />
        </mxCell>
        <mxCell id="0gZr8LwHz6kF_PgUSsYP-36" value="ContrÃ´le manuel" style="text;html=1;align=center;verticalAlign=middle;resizable=0;points=[];autosize=1;strokeColor=none;" parent="1" vertex="1">
          <mxGeometry x="-423" y="750" width="110" height="20" as="geometry" />
        </mxCell>
        <mxCell id="0gZr8LwHz6kF_PgUSsYP-41" style="edgeStyle=orthogonalEdgeStyle;rounded=0;orthogonalLoop=1;jettySize=auto;html=1;exitX=1;exitY=0.5;exitDx=0;exitDy=0;" parent="1" source="0gZr8LwHz6kF_PgUSsYP-40" edge="1">
          <mxGeometry relative="1" as="geometry">
            <mxPoint x="-144" y="190" as="targetPoint" />
            <Array as="points">
              <mxPoint x="-144" y="70" />
            </Array>
          </mxGeometry>
        </mxCell>
        <mxCell id="0gZr8LwHz6kF_PgUSsYP-40" value="Stockage refontes" style="shape=process;whiteSpace=wrap;html=1;backgroundOutline=1;" parent="1" vertex="1">
          <mxGeometry x="-494" y="40" width="120" height="60" as="geometry" />
        </mxCell>
        <mxCell id="0gZr8LwHz6kF_PgUSsYP-42" value="ContrÃ´le QualitÃ©" style="text;html=1;strokeColor=none;fillColor=none;align=center;verticalAlign=middle;whiteSpace=wrap;rounded=0;" parent="1" vertex="1">
          <mxGeometry x="-303" y="80" width="40" height="20" as="geometry" />
        </mxCell>
        <mxCell id="0gZr8LwHz6kF_PgUSsYP-44" value="AZAP" style="ellipse;whiteSpace=wrap;html=1;" parent="1" vertex="1">
          <mxGeometry x="340" y="-390" width="120" height="80" as="geometry" />
        </mxCell>
        <mxCell id="0gZr8LwHz6kF_PgUSsYP-46" value="&lt;div&gt;Extraction manuelle&lt;/div&gt;" style="text;html=1;align=center;verticalAlign=middle;resizable=0;points=[];autosize=1;strokeColor=none;" parent="1" vertex="1">
          <mxGeometry x="-570" y="895" width="120" height="20" as="geometry" />
        </mxCell>
        <mxCell id="0gZr8LwHz6kF_PgUSsYP-49" style="edgeStyle=orthogonalEdgeStyle;rounded=0;orthogonalLoop=1;jettySize=auto;html=1;entryX=0.5;entryY=0;entryDx=0;entryDy=0;" parent="1" source="0gZr8LwHz6kF_PgUSsYP-20" edge="1" target="li9ldGSQjym8fthIgQEz-78">
          <mxGeometry relative="1" as="geometry">
            <mxPoint x="530" y="570" as="targetPoint" />
            <Array as="points">
              <mxPoint x="730" y="440" />
              <mxPoint x="845" y="440" />
            </Array>
          </mxGeometry>
        </mxCell>
        <mxCell id="0gZr8LwHz6kF_PgUSsYP-48" value="X3" style="ellipse;whiteSpace=wrap;html=1;" parent="1" vertex="1">
          <mxGeometry x="70" y="-30" width="120" height="80" as="geometry" />
        </mxCell>
        <mxCell id="VTwx-t2vPlXbv8BFAl15-2" style="edgeStyle=orthogonalEdgeStyle;rounded=0;orthogonalLoop=1;jettySize=auto;html=1;exitX=0;exitY=0.5;exitDx=0;exitDy=0;entryX=0.75;entryY=0;entryDx=0;entryDy=0;" edge="1" parent="1" source="0gZr8LwHz6kF_PgUSsYP-20" target="li9ldGSQjym8fthIgQEz-31">
          <mxGeometry relative="1" as="geometry" />
        </mxCell>
        <mxCell id="VTwx-t2vPlXbv8BFAl15-6" value="" style="shape=note;whiteSpace=wrap;html=1;backgroundOutline=1;darkOpacity=0.05;size=24;" vertex="1" parent="1">
          <mxGeometry x="510" y="850" width="40" height="60" as="geometry" />
        </mxCell>
        <mxCell id="VTwx-t2vPlXbv8BFAl15-7" value="" style="shape=note;whiteSpace=wrap;html=1;backgroundOutline=1;darkOpacity=0.05;size=24;" vertex="1" parent="1">
          <mxGeometry x="520" y="860" width="40" height="60" as="geometry" />
        </mxCell>
        <mxCell id="VTwx-t2vPlXbv8BFAl15-8" value="" style="shape=note;whiteSpace=wrap;html=1;backgroundOutline=1;darkOpacity=0.05;size=24;" vertex="1" parent="1">
          <mxGeometry x="530" y="870" width="40" height="60" as="geometry" />
        </mxCell>
        <mxCell id="VTwx-t2vPlXbv8BFAl15-9" value="&lt;div&gt;COMPACT&lt;/div&gt;&lt;div&gt;CONSOMIX&lt;/div&gt;&lt;div&gt;MPPASTO&lt;/div&gt;&lt;div&gt;REFONTE X2&lt;/div&gt;" style="text;html=1;align=center;verticalAlign=middle;resizable=0;points=[];autosize=1;strokeColor=none;container=0;fontStyle=1" vertex="1" collapsed="1" parent="1">
          <mxGeometry x="590" y="860" width="100" height="60" as="geometry">
            <mxRectangle x="560" y="860" width="90" height="60" as="alternateBounds" />
          </mxGeometry>
        </mxCell>
        <mxCell id="VTwx-t2vPlXbv8BFAl15-11" value="&lt;div&gt;ArrÃªts&lt;/div&gt;" style="text;html=1;align=center;verticalAlign=middle;resizable=0;points=[];autosize=1;strokeColor=none;fontStyle=1" vertex="1" parent="1">
          <mxGeometry x="276" y="1002" width="46" height="18" as="geometry" />
        </mxCell>
        <mxCell id="VTwx-t2vPlXbv8BFAl15-12" value="&lt;div&gt;Gestion de la prÃ©paration&lt;/div&gt;&lt;div&gt;de la zone d&#39;attente&lt;/div&gt;" style="text;html=1;align=center;verticalAlign=middle;resizable=0;points=[];autosize=1;strokeColor=none;" vertex="1" parent="1">
          <mxGeometry x="580" y="360" width="150" height="30" as="geometry" />
        </mxCell>
      </root>
    </mxGraphModel>
  </diagram>
  <diagram id="H_8nJdOTdXc7lNmNHyvS" name="Page-2">
    <mxGraphModel dx="1422" dy="733" grid="1" gridSize="10" guides="1" tooltips="1" connect="1" arrows="1" fold="1" page="1" pageScale="1" pageWidth="827" pageHeight="1169" math="0" shadow="0">
      <root>
        <mxCell id="5CdEODHvm-kbiSeH5RzT-0" />
        <mxCell id="5CdEODHvm-kbiSeH5RzT-1" parent="5CdEODHvm-kbiSeH5RzT-0" />
        <mxCell id="h9TWuZ1HHDYkApgVh6XO-0" style="edgeStyle=orthogonalEdgeStyle;rounded=0;orthogonalLoop=1;jettySize=auto;html=1;" parent="5CdEODHvm-kbiSeH5RzT-1" source="K7Ln58GqggfBzTVGq7AC-0" edge="1">
          <mxGeometry relative="1" as="geometry">
            <mxPoint x="500" y="280" as="targetPoint" />
          </mxGeometry>
        </mxCell>
        <mxCell id="K7Ln58GqggfBzTVGq7AC-0" value="Office365" style="shape=process;whiteSpace=wrap;html=1;backgroundOutline=1;" parent="5CdEODHvm-kbiSeH5RzT-1" vertex="1">
          <mxGeometry x="330" y="250" width="120" height="60" as="geometry" />
        </mxCell>
        <mxCell id="K7Ln58GqggfBzTVGq7AC-1" style="edgeStyle=orthogonalEdgeStyle;rounded=0;orthogonalLoop=1;jettySize=auto;html=1;exitX=0.5;exitY=1;exitDx=0;exitDy=0;" parent="5CdEODHvm-kbiSeH5RzT-1" source="K7Ln58GqggfBzTVGq7AC-2" target="K7Ln58GqggfBzTVGq7AC-0" edge="1">
          <mxGeometry relative="1" as="geometry" />
        </mxCell>
        <mxCell id="h9TWuZ1HHDYkApgVh6XO-3" value="" style="edgeStyle=orthogonalEdgeStyle;rounded=0;orthogonalLoop=1;jettySize=auto;html=1;" parent="5CdEODHvm-kbiSeH5RzT-1" source="K7Ln58GqggfBzTVGq7AC-2" target="h9TWuZ1HHDYkApgVh6XO-2" edge="1">
          <mxGeometry relative="1" as="geometry" />
        </mxCell>
        <mxCell id="K7Ln58GqggfBzTVGq7AC-2" value="&lt;div&gt;SAP&lt;/div&gt;" style="ellipse;whiteSpace=wrap;html=1;aspect=fixed;" parent="5CdEODHvm-kbiSeH5RzT-1" vertex="1">
          <mxGeometry x="350" y="130" width="80" height="80" as="geometry" />
        </mxCell>
        <mxCell id="h9TWuZ1HHDYkApgVh6XO-1" value="" style="ellipse;shape=cloud;whiteSpace=wrap;html=1;" parent="5CdEODHvm-kbiSeH5RzT-1" vertex="1">
          <mxGeometry x="500" y="240" width="120" height="80" as="geometry" />
        </mxCell>
        <mxCell id="h9TWuZ1HHDYkApgVh6XO-2" value="NEW" style="shape=tape;whiteSpace=wrap;html=1;" parent="5CdEODHvm-kbiSeH5RzT-1" vertex="1">
          <mxGeometry x="170" y="120" width="120" height="100" as="geometry" />
        </mxCell>
      </root>
    </mxGraphModel>
  </diagram>
</mxfile>
